<svg width="410" height="83" viewBox="0 0 410 83" class="looka-1j8o68f">
    <defs id="SvgjsDefs3543"></defs>
    <g id="SvgjsG3544" featurekey="rootContainer" transform="matrix(1,0,0,1,0,0)" fill="#17b978">
        <rect width="410" height="83"></rect>
    </g>
    <g id="SvgjsG3545" featurekey="4PIMQ1-0" transform="matrix(0.5280946328563404,0,0,0.5280946328563404,20,15)"
        fill="#ffffff">
        <path xmlns="http://www.w3.org/2000/svg"
            d="M68.502,0c-3.284,0.262-6.492,0.594-9.654,0.971C38.964,3.335,21.698,7.916,8.656,14.01C5.521,15.475,2.619,17.024,0,18.66  v58.244L94.68,100V40.886L68.502,0z M86.021,89.009L8.656,70.126V52.7l77.365,19.222V89.009z M86.021,63.003L8.699,43.78  L8.656,26.353l77.365,19.248V63.003z">
        </path>
    </g>
    <g id="SvgjsG3546" featurekey="fHLFJf-0"
        transform="matrix(2.197086018116841,0,0,2.197086018116841,89.34087207306914,9.663036481765822)" fill="#ffffff">
        <path
            d="M6.28 12.54 q-0.66 0 -1.05 0.55 t-0.39 1.47 q0 0.94 0.39 1.49 t1.05 0.55 q1 0 1.34 -1.18 l3.64 1.68 q-0.6 1.46 -1.97 2.26 t-3.25 0.8 q-1.72 0 -3.02 -0.69 t-2.01 -1.95 t-0.71 -2.94 q0 -1.7 0.71 -2.99 t2.02 -1.99 t3.05 -0.7 q1.78 0 3.14 0.83 t2.04 2.33 l-3.58 1.52 q-0.44 -1.04 -1.4 -1.04 z M21.8195 9.93 q1.33 1.07 1.33 2.99 l0 7.08 l-4.42 0 l0 -1.18 q-1 1.38 -3.08 1.38 q-1.72 0 -2.69 -0.93 t-0.97 -2.51 q0 -1.62 1.08 -2.46 t3.16 -0.88 l2.5 0 q-0.02 -0.58 -0.45 -0.89 t-1.25 -0.31 q-0.64 0 -1.53 0.18 t-1.79 0.52 l-1 -3 q1.4 -0.52 2.79 -0.79 t2.61 -0.27 q2.38 0 3.71 1.07 z M18.0595 17.12 q0.41 -0.22 0.67 -0.62 l0 -1 l-1.56 0 q-0.96 0 -0.96 0.88 q0 0.46 0.26 0.71 t0.74 0.25 q0.44 0 0.85 -0.22 z M37.739000000000004 9.06 l-3.98 4.22 l3.92 6.72 l-5.34 0 l-1.68 -3.44 l-0.54 0.56 l0 2.88 l-4.5 0 l0 -14.84 l4.5 0 l0 6.74 l2.54 -2.84 l5.08 0 z M47.3885 9.64 q1.32 0.74 2.02 2.11 t0.7 3.21 q0 0.38 -0.02 0.58 l-7.12 0 q0.22 0.64 0.69 0.97 t1.13 0.33 q1.18 0 2.22 -0.98 l2.34 2.3 q-0.88 0.98 -2.13 1.49 t-2.83 0.51 q-1.84 0 -3.19 -0.69 t-2.06 -1.95 t-0.71 -2.94 q0 -1.72 0.72 -3 t2.05 -1.98 t3.07 -0.7 q1.8 0 3.12 0.74 z M45.258500000000005 12.34 q-0.37 -0.44 -0.95 -0.44 q-0.56 0 -0.93 0.42 t-0.51 1.14 l2.72 0 q0.04 -0.68 -0.33 -1.12 z M60.8275 11.82 q-0.28 0 -0.45 0.1 t-0.17 0.26 q0 0.24 0.36 0.4 t1.2 0.38 q1.18 0.32 2.02 0.66 t1.47 1.04 t0.63 1.82 t-0.61 1.96 t-1.73 1.3 t-2.62 0.46 q-3.06 0 -5.34 -1.56 l1.36 -2.8 q2.2 1.36 4.04 1.36 q0.32 0 0.5 -0.09 t0.18 -0.23 q0 -0.22 -0.35 -0.37 t-1.13 -0.35 q-1.18 -0.3 -2 -0.64 t-1.45 -1.04 t-0.63 -1.84 t0.6 -1.99 t1.69 -1.32 t2.53 -0.47 q2.62 0 5.08 1.38 l-1.48 2.78 q-2.44 -1.2 -3.7 -1.2 z M73.137 12.54 q-0.66 0 -1.05 0.55 t-0.39 1.47 q0 0.94 0.39 1.49 t1.05 0.55 q1 0 1.34 -1.18 l3.64 1.68 q-0.6 1.46 -1.97 2.26 t-3.25 0.8 q-1.72 0 -3.02 -0.69 t-2.01 -1.95 t-0.71 -2.94 q0 -1.7 0.71 -2.99 t2.02 -1.99 t3.05 -0.7 q1.78 0 3.14 0.83 t2.04 2.33 l-3.58 1.52 q-0.44 -1.04 -1.4 -1.04 z M85.5765 9.33 q0.85 -0.47 1.91 -0.47 l0 4.06 q-0.44 -0.06 -0.86 -0.06 q-1.16 0 -1.82 0.51 t-0.66 1.41 l0 5.22 l-4.5 0 l0 -10.94 l4.5 0 l0 1.6 q0.58 -0.86 1.43 -1.33 z M98.28599999999999 9.93 q1.33 1.07 1.33 2.99 l0 7.08 l-4.42 0 l0 -1.18 q-1 1.38 -3.08 1.38 q-1.72 0 -2.69 -0.93 t-0.97 -2.51 q0 -1.62 1.08 -2.46 t3.16 -0.88 l2.5 0 q-0.02 -0.58 -0.45 -0.89 t-1.25 -0.31 q-0.64 0 -1.53 0.18 t-1.79 0.52 l-1 -3 q1.4 -0.52 2.79 -0.79 t2.61 -0.27 q2.38 0 3.71 1.07 z M94.526 17.12 q0.41 -0.22 0.67 -0.62 l0 -1 l-1.56 0 q-0.96 0 -0.96 0.88 q0 0.46 0.26 0.71 t0.74 0.25 q0.44 0 0.85 -0.22 z M112.0055 9.6 q1.14 0.7 1.76 1.99 t0.62 3.01 q0 1.68 -0.6 2.94 t-1.71 1.94 t-2.59 0.68 q-0.88 0 -1.62 -0.33 t-1.28 -0.95 l0 5 l-4.5 0 l0 -14.82 l4.5 0 l0 1.1 q1.08 -1.26 2.78 -1.26 q1.5 0 2.64 0.7 z M109.3955 16.02 q0.45 -0.58 0.45 -1.54 t-0.45 -1.54 t-1.19 -0.58 t-1.18 0.58 t-0.44 1.54 t0.44 1.54 t1.18 0.58 t1.19 -0.58 z M124.415 9.64 q1.32 0.74 2.02 2.11 t0.7 3.21 q0 0.38 -0.02 0.58 l-7.12 0 q0.22 0.64 0.69 0.97 t1.13 0.33 q1.18 0 2.22 -0.98 l2.34 2.3 q-0.88 0.98 -2.13 1.49 t-2.83 0.51 q-1.84 0 -3.19 -0.69 t-2.06 -1.95 t-0.71 -2.94 q0 -1.72 0.72 -3 t2.05 -1.98 t3.07 -0.7 q1.8 0 3.12 0.74 z M122.285 12.34 q-0.37 -0.44 -0.95 -0.44 q-0.56 0 -0.93 0.42 t-0.51 1.14 l2.72 0 q0.04 -0.68 -0.33 -1.12 z M134.93449999999999 9.33 q0.85 -0.47 1.91 -0.47 l0 4.06 q-0.44 -0.06 -0.86 -0.06 q-1.16 0 -1.82 0.51 t-0.66 1.41 l0 5.22 l-4.5 0 l0 -10.94 l4.5 0 l0 1.6 q0.58 -0.86 1.43 -1.33 z">
        </path>
    </g>
</svg>